<svg width="17" height="17" viewBox="0 0 15.561 17.151"><path data-name="\u041A\u043E\u043D\u0442\u0443\u0440 1478" d="M13.769 1.882h-1.452V.527a.523.523 0 00-.158-.374.54.54 0 00-.382-.153.533.533 0 00-.53.527v1.355h-6.93V.527a.535.535 0 00-1.07 0v1.355H1.776a1.786 1.786 0 00-1.778 1.76v11.75a1.782 1.782 0 001.775 1.759h12.008a1.784 1.784 0 001.777-1.761V3.64a1.789 1.789 0 00-1.789-1.758zm.721 13.508a.72.72 0 01-.722.707H1.783a.715.715 0 01-.715-.706V6.925h13.421zm0-9.521H1.069V3.549a.718.718 0 01.707-.613h1.458l.011.421a.535.535 0 001.07 0l.013-.419h6.9l.012.421a.535.535 0 001.069 0l.014-.419h1.452a.714.714 0 01.713.706z" fill="#96a2ac"></path></svg>