<svg data-name="\u0421\u0433\u0440\u0443\u043F\u043F\u0438\u0440\u043E\u0432\u0430\u0442\u044C 1463" width="17" height="17" viewBox="0 0 17 17" fill="#96A2AC"><path data-name="\u041A\u043E\u043D\u0442\u0443\u0440 1387" d="M12.885 5.09a.46.46 0 00-.644-.008.071.071 0 01-.01.012l-5.042 5.849-2.431-2.415a.457.457 0 00-.646.647l2.753 2.737a.464.464 0 00.326.134.459.459 0 00.324-.134l5.366-6.171a.453.453 0 00.01-.645z"></path><path data-name="\u041A\u043E\u043D\u0442\u0443\u0440 1388" d="M8.5 0A8.5 8.5 0 1017 8.5 8.5 8.5 0 008.5 0zm0 16.075A7.575 7.575 0 1116.075 8.5 7.583 7.583 0 018.5 16.075z"></path></svg>